<svg width="25" height="25" viewBox="0 0 25 25" fill="none" xmlns="http://www.w3.org/2000/svg">
<path d="M4.19862 21.9998C3.75882 21.9998 3.33902 21.8698 2.97918 21.63C2.61935 21.3901 2.32949 21.0403 2.16956 20.6405C1.99964 20.2407 1.95965 19.7909 2.03962 19.3711C2.12958 18.9413 2.32949 18.5515 2.63935 18.2416L18.2221 2.65943C18.422 2.45953 18.6719 2.28964 18.9318 2.17969C19.2017 2.06975 19.4815 2.00977 19.7714 2.00977C20.0613 2.00977 20.3511 2.06975 20.611 2.17969C20.8809 2.28964 21.1208 2.44954 21.3307 2.65943C21.5406 2.86933 21.7005 3.1092 21.8105 3.36907C21.9204 3.63894 21.9804 3.91882 21.9804 4.20868C21.9804 4.49853 21.9204 4.77839 21.8105 5.04825C21.7005 5.31812 21.5406 5.55799 21.3307 5.75789L5.74789 21.3401C5.54798 21.54 5.29811 21.7099 5.03823 21.8199C4.76835 21.9298 4.48849 21.9898 4.19862 21.9898V21.9998Z" fill="#E2BF04"/>
<path d="M19.7914 22C19.5015 22 19.2216 21.94 18.9518 21.8301C18.6819 21.7201 18.442 21.5602 18.2421 21.3503L2.65934 5.76813C2.24953 5.35834 2.00964 4.79862 2.00964 4.20892C2.00964 3.61921 2.23953 3.05949 2.65934 2.6497C3.07914 2.2399 3.62888 2 4.21861 2C4.80834 2 5.35808 2.22991 5.77789 2.6497L21.3607 18.2319C21.6705 18.5417 21.8804 18.9315 21.9604 19.3613C22.0403 19.7911 22.0004 20.2309 21.8304 20.6307C21.6605 21.0305 21.3807 21.3803 21.0208 21.6202C20.661 21.8601 20.2312 21.99 19.8014 21.99L19.7914 22Z" fill="#E2BF04"/>
</svg>
