<svg width="55" height="56" viewBox="0 0 55 56" fill="none" xmlns="http://www.w3.org/2000/svg">
<path fill-rule="evenodd" clip-rule="evenodd" d="M13.0782 4.66675H40.9493C45.6856 4.66675 49.525 8.64644 49.525 13.5556V42.4445C49.525 47.3537 45.6856 51.3334 40.9493 51.3334H13.0782C8.34193 51.3334 4.50244 47.3537 4.50244 42.4445V13.5556C4.50244 8.64644 8.34193 4.66675 13.0782 4.66675ZM38.8054 36.0445C39.6934 36.0445 40.4133 35.2983 40.4133 34.3779L40.3276 27.7112C40.3276 26.7907 39.6077 26.0445 38.7196 26.0445C37.8316 26.0445 37.1117 26.7907 37.1117 27.7112V31.089L28.7075 22.3779C27.5696 21.2025 25.7289 21.2025 24.5911 22.3779L20.3032 26.8223L15.0077 21.3334C14.3858 20.9154 13.5687 20.9923 13.0296 21.5195C12.4904 22.0468 12.3688 22.8877 12.7351 23.5556L18.3308 29.2445C19.4687 30.4198 21.3093 30.4198 22.4472 29.2445L26.735 24.8001L34.3674 32.7112H32.3736C31.4855 32.7112 30.7656 33.4574 30.7656 34.3779C30.7656 35.2983 31.4855 36.0445 32.3736 36.0445H38.8054Z" fill="white"/>
</svg>
