<svg width="25" height="25" viewBox="0 0 32 32" fill="none" xmlns="http://www.w3.org/2000/svg">
<path d="M11 16C11 17.2667 11.0565 18.4944 11.1623 19.6667H20.8377C20.9435 18.4944 21 17.2667 21 16C21 14.7334 20.9433 13.5056 20.837 12.3333H11.163C11.0567 13.5056 11 14.7334 11 16Z" fill="#E3E3E3"/>
<path d="M9.1552 12.3333C9.05347 13.5155 9 14.7429 9 16C9 17.2571 9.0532 18.4844 9.15453 19.6667H1.45137C1.15657 18.4932 1 17.2649 1 16C1 14.7351 1.15657 13.5068 1.45137 12.3333H9.1552Z" fill="#E3E3E3"/>
<path d="M11.3992 10.3333H20.6008C20.3045 8.31507 19.8564 6.51577 19.3013 5.0379C18.7822 3.65568 18.1886 2.60627 17.5811 1.92043C16.9721 1.2329 16.4352 1 16 1C15.5648 1 15.0278 1.2329 14.4188 1.92043C13.8113 2.60627 13.2178 3.65568 12.6986 5.0379C12.1436 6.51577 11.6954 8.31507 11.3992 10.3333Z" fill="#E3E3E3"/>
<path d="M22.8448 12.3333C22.9466 13.5155 23 14.7429 23 16C23 17.2571 22.9468 18.4844 22.8455 19.6667H30.5486C30.8435 18.4932 31 17.2649 31 16C31 14.7351 30.8435 13.5068 30.5486 12.3333H22.8448Z" fill="#E3E3E3"/>
<path d="M29.8927 10.3333H22.6211C22.3079 8.07467 21.8118 6.03366 21.1737 4.33468C20.7666 3.25098 20.2919 2.27983 19.7516 1.47298C24.3645 2.66079 28.1184 5.98779 29.8927 10.3333Z" fill="#E3E3E3"/>
<path d="M9.37895 10.3333H2.1073C3.88161 5.98779 7.63555 2.66079 12.2484 1.47298C11.7081 2.27983 11.2334 3.25098 10.8263 4.33468C10.1882 6.03366 9.69208 8.07467 9.37895 10.3333Z" fill="#E3E3E3"/>
<path d="M9.37741 21.6667H2.1073C3.88067 26.0099 7.63155 29.3357 12.2411 30.5251C11.701 29.7184 11.2271 28.7477 10.821 27.6648C10.1839 25.9659 9.68935 23.9251 9.37741 21.6667Z" fill="#E3E3E3"/>
<path d="M19.3064 26.9626C19.8606 25.4847 20.3073 23.6853 20.6025 21.6667H11.3976C11.6928 23.6853 12.1395 25.4847 12.6937 26.9626C13.2121 28.3447 13.805 29.3937 14.4128 30.0793C15.0216 30.7659 15.5603 31 16 31C16.4398 31 16.9784 30.7659 17.5872 30.0793C18.195 29.3937 18.788 28.3447 19.3064 26.9626Z" fill="#E3E3E3"/>
<path d="M21.179 27.6648C21.816 25.9659 22.3106 23.9251 22.6226 21.6667H29.8927C28.1193 26.0099 24.3684 29.3357 19.7589 30.5251C20.299 29.7184 20.7728 28.7477 21.179 27.6648Z" fill="#E3E3E3"/>
</svg>
