<svg width="11" height="18" viewBox="0 0 11 18" fill="none" xmlns="http://www.w3.org/2000/svg">
<path d="M10.5285 5.92307C10.4032 5.92366 10.283 5.87421 10.195 5.7859L5.49432 1.12817L0.793691 5.7859C0.607736 5.95759 0.317958 5.95252 0.138232 5.77444C-0.0414949 5.59635 -0.0466077 5.30922 0.126667 5.12496L5.16081 0.136764C5.34507 -0.045588 5.64357 -0.045588 5.82783 0.136764L10.862 5.12496C11.046 5.30754 11.046 5.60332 10.862 5.7859C10.774 5.87421 10.6537 5.92366 10.5285 5.92307Z" fill="#E3E3E3"/>
<path d="M10.5285 5.92307C10.4032 5.92366 10.283 5.87421 10.195 5.7859L5.49432 1.12817L0.793691 5.7859C0.607736 5.95759 0.317958 5.95252 0.138232 5.77444C-0.0414949 5.59635 -0.0466077 5.30922 0.126667 5.12496L5.16081 0.136764C5.34507 -0.045588 5.64357 -0.045588 5.82783 0.136764L10.862 5.12496C11.046 5.30754 11.046 5.60332 10.862 5.7859C10.774 5.87421 10.6537 5.92366 10.5285 5.92307Z" fill="#E3E3E3"/>
<path d="M10.5285 5.92307C10.4032 5.92366 10.283 5.87421 10.195 5.7859L5.49432 1.12817L0.793691 5.7859C0.607736 5.95759 0.317958 5.95252 0.138232 5.77444C-0.0414949 5.59635 -0.0466077 5.30922 0.126667 5.12496L5.16081 0.136764C5.34507 -0.045588 5.64357 -0.045588 5.82783 0.136764L10.862 5.12496C11.046 5.30754 11.046 5.60332 10.862 5.7859C10.774 5.87421 10.6537 5.92366 10.5285 5.92307Z" fill="#A5A5A5"/>
<path d="M0.471534 11.8462C0.5968 11.8456 0.717023 11.8951 0.805047 11.9834L5.50568 16.6411L10.2063 11.9834C10.3923 11.8117 10.682 11.8168 10.8618 11.9949C11.0415 12.1729 11.0466 12.4601 10.8733 12.6443L5.83919 17.6325C5.65493 17.8149 5.35643 17.8149 5.17217 17.6325L0.138023 12.6443C-0.0460087 12.4617 -0.0460087 12.166 0.138023 11.9834C0.226047 11.8951 0.346269 11.8456 0.471534 11.8462Z" fill="#E3E3E3"/>
<path d="M0.471534 11.8462C0.5968 11.8456 0.717023 11.8951 0.805047 11.9834L5.50568 16.6411L10.2063 11.9834C10.3923 11.8117 10.682 11.8168 10.8618 11.9949C11.0415 12.1729 11.0466 12.4601 10.8733 12.6443L5.83919 17.6325C5.65493 17.8149 5.35643 17.8149 5.17217 17.6325L0.138023 12.6443C-0.0460087 12.4617 -0.0460087 12.166 0.138023 11.9834C0.226047 11.8951 0.346269 11.8456 0.471534 11.8462Z" fill="#E3E3E3"/>
<path d="M0.471534 11.8462C0.5968 11.8456 0.717023 11.8951 0.805047 11.9834L5.50568 16.6411L10.2063 11.9834C10.3923 11.8117 10.682 11.8168 10.8618 11.9949C11.0415 12.1729 11.0466 12.4601 10.8733 12.6443L5.83919 17.6325C5.65493 17.8149 5.35643 17.8149 5.17217 17.6325L0.138023 12.6443C-0.0460087 12.4617 -0.0460087 12.166 0.138023 11.9834C0.226047 11.8951 0.346269 11.8456 0.471534 11.8462Z" fill="#A5A5A5"/>
</svg>
